<?xml version="1.0" encoding="utf-8"?>
<svg viewBox="229.31500244140625 55.547000885009766 202.08700561523438 114.16500091552734" xmlns="http://www.w3.org/2000/svg">
  <path d="M 229.315 99.334 L 238.567 99.334 L 257.492 155.477 L 277.047 99.124 L 286.51 99.124 L 305.855 153.585 L 325.2 99.124 L 334.242 99.334 L 310.902 169.306 L 299.757 169.355 L 282.515 115.105 L 262.749 169.293 L 252.235 169.355 L 229.315 99.334 Z"/>
  <path d="M 343.509 167.748"/>
  <path d="M 342.554 168.226"/>
  <path d="M 342.244 169.117 L 366.317 169.118 L 366.02 138.507 L 374.935 127.808 L 400.494 169.712 L 431.55 169.712 L 391.281 111.462 L 423.08 79.366 L 391.875 79.069 L 366.317 106.113 L 365.722 55.59 C 355.974 54.902 343.773 62.524 343.73 72.53 L 342.244 169.117 Z"/>
  <path d="M 345.513 67.775"/>
</svg>
